<svg xmlns="http://www.w3.org/2000/svg" width="830" height="224" viewBox="0 0 830 224" role="img" aria-label="04 DSH 插件适配 dsh-plugins"><title>04 DSH 插件适配 dsh-plugins</title><style>text{font-family:PingFang SC, Microsoft YaHei, Noto Sans CJK SC, sans-serif}.m{font-family:SFMono-Regular, Consolas, Menlo, monospace}</style><rect x="6" y="10" width="818" height="210" rx="26" fill="#9FB4FF" opacity="0.18"/><rect x="3" y="3" width="818" height="210" rx="26" fill="#16303F" stroke="#2D5163" stroke-width="3" stroke-linecap="round" stroke-linejoin="round"/><text x="40" y="66" font-size="30" fill="#9FB4FF" font-weight="700" class="m">04</text><text x="40" y="118" font-size="44" fill="#EAF2F5" font-weight="700">DSH 插件适配</text><rect x="40" y="150" width="214" height="48" rx="24" fill="#9FB4FF" opacity="0.22"/><rect x="40" y="150" width="214" height="48" rx="24" fill="none" stroke="#9FB4FF" stroke-width="2.5" stroke-linecap="round" stroke-linejoin="round"/><text x="147" y="185" font-size="30" fill="#EAF2F5" text-anchor="middle">TypeScript</text><rect x="268" y="150" width="160" height="48" rx="24" fill="#6CC3CF" opacity="0.22"/><rect x="268" y="150" width="160" height="48" rx="24" fill="none" stroke="#6CC3CF" stroke-width="2.5" stroke-linecap="round" stroke-linejoin="round"/><text x="348" y="185" font-size="30" fill="#EAF2F5" text-anchor="middle">跟版适配</text><g transform="translate(640 106)"><g transform="translate(-14 0)"><rect x="-60" y="-62" width="104" height="104" rx="10" fill="#EDCB8C" stroke="#B8894A" stroke-width="3.5" stroke-linecap="round" stroke-linejoin="round"/><path d="M-60 -10 H44 M-8 -62 V42" stroke="#B8894A" stroke-width="2.5" stroke-linecap="round" stroke-linejoin="round" stroke-dasharray="4 6"/><path d="M-46 -38 H-22 M5 -38 H30 M-46 14 H-26" stroke="#1D3440" stroke-width="4" stroke-linecap="round" stroke-linejoin="round"/><rect x="-22" y="-74" width="30" height="16" rx="4" fill="#9FB4FF" opacity=".85" transform="rotate(-6)"/></g><path d="M88 -58 H122" stroke="#A9C1CB" stroke-width="4" stroke-linecap="round" stroke-linejoin="round"/><path d="M88 -36 H136" stroke="#A9C1CB" stroke-width="4" stroke-linecap="round" stroke-linejoin="round"/><path d="M88 -14 H112" stroke="#A9C1CB" stroke-width="4" stroke-linecap="round" stroke-linejoin="round"/><path d="M88 8 H150" stroke="#9FB4FF" stroke-width="6" stroke-linecap="round" stroke-linejoin="round"/><path d="M88 30 H118" stroke="#A9C1CB" stroke-width="4" stroke-linecap="round" stroke-linejoin="round"/><path d="M88 52 H128" stroke="#A9C1CB" stroke-width="4" stroke-linecap="round" stroke-linejoin="round"/><rect x="-118" y="-12" width="48" height="44" rx="10" fill="#EEF3F5" stroke="#A9C1CB" stroke-width="3" stroke-linecap="round" stroke-linejoin="round"/><text x="-94" y="20" font-size="28" fill="#9FB4FF" font-weight="700" text-anchor="middle" class="m">/</text></g></svg>
